# xmcd CD database file
#
# Track frame offsets:
#	150
#	19035
#	33739
#	53179
#	78900
#	103496
#	128854
#	159155
#	180542
#	204987
#	228308
#	239108
#	252380
#
# Disc length: 3549 seconds
#
# Revision: 0
# Processed by: cddbd v1.5.2PL0 Copyright (c) Steve Scherf et al.
# Submitted via: CDex 1.70beta2
#
DISCID=ad0ddb0d
DTITLE=Salsa Brava - Salsa Brava_2
DYEAR=1900
DGENRE=Salsa
TTITLE0=isla para dos
TTITLE1=pensano en ti
TTITLE2=ojos chinos
TTITLE3=good loving
TTITLE4=casi te envidio
TTITLE5=el nazareno
TTITLE6=ahora me da pena
TTITLE7=maria luisa
TTITLE8=micaela
TTITLE9=cali pachanguero
TTITLE10=huerfano soy
TTITLE11=lluvia con nieve
TTITLE12=la pachanga se baila asi
EXTD=
EXTT0=
EXTT1=
EXTT2=
EXTT3=
EXTT4=
EXTT5=
EXTT6=
EXTT7=
EXTT8=
EXTT9=
EXTT10=
EXTT11=
EXTT12=
PLAYORDER=
